# xmcd
#
# Track frame offsets:
#	175
#	11742
#	24935
#	34980
#	46177
#	61477
#	76915
#	90947
#	102982
#	111535
#	123545
#	134575
#	143877
#	156982
#	170540
#	181985
#	191465
#	203760
#	216305
#	226117
#
# Disc length: 3164
#
# Revision: 3
# Processed by: cddbd v1.5.1PL0 Copyright (c) Steve Scherf et al.
# Submitted via: EasyCDDAExtractor 5.0.6
# Normalized: r1:DSETVAR1;r2:TSWAP
#
DISCID=150c5a14
DTITLE=Various Artist - Going to the Popcorn Dance Party Vol. 1
DYEAR=1900
DGENRE=Popcorn
TTITLE0=Dusty springfield - Tanto so che Poi Mi Passa
TTITLE1=Claudia mori - Non guardami
TTITLE2=Bernadette castro - His lips get in the way
TTITLE3=Billy stewart - Count me out
TTITLE4=Piste  5 - El Bang Bang
TTITLE5=Cannonball aderley - Jive Samba
TTITLE6=Willie bobo - Be's that way
TTITLE7=Oscar brown jr - Opportunity please knock
TTITLE8=Gloria brady - Play fair with me
TTITLE9=The monclairs - Wait for me
TTITLE10=Marci and the mates - Oops there goes another tear
TTITLE11=Ray peterson - You thrill me
TTITLE12=Nicola di bari - Sto tornando da te
TTITLE13=Renato carosono and nisa - Tu vuo 'f'a l'americano
TTITLE14=Dean martin - Nambo Italiano
TTITLE15=Lou monte - Sixteen Tons
TTITLE16=Rita pavone - Solo per te
TTITLE17=Rita pavone - Lui
TTITLE18=Johnny nash - I'm leaving
TTITLE19=Reggae srings - Leaving Rome
EXTD=
EXTT0=
EXTT1=
EXTT2=
EXTT3=
EXTT4=
EXTT5=
EXTT6=
EXTT7=
EXTT8=
EXTT9=
EXTT10=
EXTT11=
EXTT12=
EXTT13=
EXTT14=
EXTT15=
EXTT16=
EXTT17=
EXTT18=
EXTT19=
PLAYORDER=
